<?xml version="1.0"?>
<svg xmlns="http://www.w3.org/2000/svg" xmlns:xlink="http://www.w3.org/1999/xlink" xmlns:svgjs="http://svgjs.com/svgjs" version="1.1" width="512" height="512" x="0" y="0" viewBox="0 0 511.985 511.985" style="enable-background:new 0 0 512 512" xml:space="preserve" class=""><g transform="matrix(-1,0,0,1,511.9849853515625,0)">
<path xmlns="http://www.w3.org/2000/svg" style="" d="M382.66,126.657c-37.28,0-70.872,15.781-94.481,41.03c-12.64-14.577-31.296-23.78-52.092-23.78  c-38.093,0-68.982,30.874-68.982,68.966c0,0.578,0.016,1.156,0.031,1.734c-39.374,7.969-68.998,42.779-68.998,84.506  c0,47.592,38.593,86.215,86.216,86.215h198.307c71.419,0,129.324-57.904,129.324-129.332  C511.984,184.561,454.079,126.657,382.66,126.657z" fill="#7da7eb" data-original="#ccd1d9" class=""/>
<g xmlns="http://www.w3.org/2000/svg">
	<path style="" d="M462.813,154.5c17.422,22.03,27.828,49.873,27.828,80.153c0,71.429-57.889,129.331-129.325,129.331   h-198.29c-18.374,0-35.39-5.748-49.373-15.529c15.593,22.279,41.437,36.873,70.7,36.873H382.66   c71.419,0,129.324-57.904,129.324-129.332C511.984,214.842,492.766,178.186,462.813,154.5z" fill="#93bef5" data-original="#aab2bc" class=""/>
	<path style="" d="M95.998,257.324H245.32c5.891,0,10.672-4.781,10.672-10.671s-4.781-10.671-10.672-10.671H95.998   c-5.891,0-10.672,4.781-10.672,10.671S90.107,257.324,95.998,257.324z" fill="#93bef5" data-original="#aab2bc" class=""/>
</g>
<path xmlns="http://www.w3.org/2000/svg" style="" d="M202.65,299.988H10.656C4.765,299.988,0,304.769,0,310.642c0,5.906,4.766,10.688,10.656,10.688  H202.65c5.891,0,10.672-4.781,10.672-10.688C213.322,304.769,208.541,299.988,202.65,299.988z" fill="#b4c9e5" data-original="#e6e9ed" class=""/>
<path xmlns="http://www.w3.org/2000/svg" style="" d="M191.994,363.984H74.654c-5.891,0-10.656,4.781-10.656,10.656c0,5.906,4.766,10.688,10.656,10.688  h117.34c5.891,0,10.656-4.781,10.656-10.688C202.65,368.765,197.885,363.984,191.994,363.984z" fill="#93bef5" data-original="#aab2bc" class=""/>
<g xmlns="http://www.w3.org/2000/svg">
</g>
<g xmlns="http://www.w3.org/2000/svg">
</g>
<g xmlns="http://www.w3.org/2000/svg">
</g>
<g xmlns="http://www.w3.org/2000/svg">
</g>
<g xmlns="http://www.w3.org/2000/svg">
</g>
<g xmlns="http://www.w3.org/2000/svg">
</g>
<g xmlns="http://www.w3.org/2000/svg">
</g>
<g xmlns="http://www.w3.org/2000/svg">
</g>
<g xmlns="http://www.w3.org/2000/svg">
</g>
<g xmlns="http://www.w3.org/2000/svg">
</g>
<g xmlns="http://www.w3.org/2000/svg">
</g>
<g xmlns="http://www.w3.org/2000/svg">
</g>
<g xmlns="http://www.w3.org/2000/svg">
</g>
<g xmlns="http://www.w3.org/2000/svg">
</g>
<g xmlns="http://www.w3.org/2000/svg">
</g>
</g></svg>
